<svg xmlns="http://www.w3.org/2000/svg" version="1.1" xmlns:xlink="http://www.w3.org/1999/xlink" xmlns:svgjs="http://svgjs.dev/svgjs" width="1000" height="1000" viewBox="0 0 1000 1000"><rect width="1000" height="1000" fill="#010536"></rect><g transform="matrix(0.7,0,0,0.7,149.57576066649415,368.7954942315859)"><svg viewBox="0 0 396 149" data-background-color="#010536" preserveAspectRatio="xMidYMid meet" height="376" width="1000" xmlns="http://www.w3.org/2000/svg" xmlns:xlink="http://www.w3.org/1999/xlink"><g id="tight-bounds" transform="matrix(1,0,0,1,0.23999825152617404,-0.22389254320832208)"><svg viewBox="0 0 395.52 149.44777547455786" height="149.44777547455786" width="395.52"><g><svg viewBox="0 0 779.3854274025466 294.49185467889896" height="149.44777547455786" width="395.52"><g transform="matrix(1,0,0,1,383.8654274025467,109.75014752293572)"><svg viewBox="0 0 395.52 74.9915596330275" height="74.9915596330275" width="395.52"><g id="textblocktransform"><svg viewBox="0 0 395.52 74.9915596330275" height="74.9915596330275" width="395.52" id="textblock"><g><svg viewBox="0 0 395.52 74.9915596330275" height="74.9915596330275" width="395.52"><g transform="matrix(1,0,0,1,0,0)"><svg width="395.52" viewBox="0.25 -35.599998474121094 245.22999572753906 46.5" height="74.9915596330275" data-palette-color="#fbfbf8"><path d="M9 10.9L9 10.9Q6.35 10.9 4.35 9.93 2.35 8.95 1.3 7.08 0.25 5.2 0.25 2.6L0.25 2.6Q0.25 0.25 1.18-2.6 2.1-5.45 4.55-8.45 7-11.45 11.5-14.2L11.5-14.2 11.5-29.75 4.25-29.75 4.25-35 17.45-35 17.45 1.7Q17.45 4.35 16.48 6.45 15.5 8.55 13.63 9.73 11.75 10.9 9 10.9ZM8.6 5.55L8.6 5.55Q9.45 5.55 10.1 5.1 10.75 4.65 11.1 3.83 11.45 3 11.45 1.85L11.45 1.85 11.45-8.1Q8.7-5.9 7.5-3.9 6.3-1.9 6.05-0.38 5.8 1.15 5.8 1.95L5.8 1.95Q5.8 3.7 6.65 4.63 7.5 5.55 8.6 5.55ZM38.75 0.6L38.75 0.6Q34.6 0.6 31.4-1.13 28.2-2.85 26.37-6.05 24.55-9.25 24.55-13.7L24.55-13.7 24.55-35 30.5-35 30.5-13.2Q30.5-10.85 31.52-8.93 32.55-7 34.4-5.83 36.25-4.65 38.75-4.65L38.75-4.65Q41.35-4.65 43.17-5.83 45-7 46-8.93 47-10.85 47-13.2L47-13.2 47-35 53-35 53-13.7Q53-9.25 51.15-6.05 49.3-2.85 46.1-1.13 42.9 0.6 38.75 0.6ZM75.8 0L60 0 60-5.25 75.05-5.25Q76.5-5.25 77.57-5.95 78.65-6.65 79.27-7.78 79.9-8.9 79.9-10.15L79.9-10.15Q79.9-11.5 79.3-12.6 78.7-13.7 77.62-14.35 76.55-15 75.15-15L75.15-15 68.9-15Q65.95-15 63.62-16.23 61.3-17.45 59.95-19.65 58.6-21.85 58.6-24.85L58.6-24.85Q58.6-27.85 59.9-30.13 61.2-32.4 63.45-33.7 65.7-35 68.55-35L68.55-35 83.6-35 83.6-29.75 69.1-29.75Q67.8-29.75 66.75-29.1 65.7-28.45 65.12-27.4 64.55-26.35 64.55-25.15L64.55-25.15Q64.55-23.9 65.12-22.88 65.7-21.85 66.72-21.23 67.75-20.6 69.05-20.6L69.05-20.6 75.45-20.6Q78.65-20.6 80.97-19.35 83.3-18.1 84.57-15.9 85.85-13.7 85.85-10.85L85.85-10.85Q85.85-7.5 84.52-5.08 83.2-2.65 80.92-1.33 78.65 0 75.8 0L75.8 0ZM111.19 0L108.74 0Q105.79 0 103.59-1.33 101.39-2.65 100.17-4.9 98.94-7.15 98.94-9.9L98.94-9.9 98.94-29.75 88.74-29.75 88.74-35 115.09-35 115.09-29.75 104.89-29.75 104.89-9.15Q104.89-7.55 105.99-6.4 107.09-5.25 108.79-5.25L108.79-5.25 111.19-5.25 111.19 0ZM125.64 0L119.69 0 119.69-35 125.64-35 125.64-19.85 133.54-19.85Q135.44-19.85 137.02-20.58 138.59-21.3 139.52-22.7 140.44-24.1 140.44-26.05L140.44-26.05 140.44-35 146.39-35 146.39-26.1Q146.39-22.65 144.69-20.05 142.99-17.45 140.19-16L140.19-16 144.59-6.4Q144.84-5.8 145.24-5.55 145.64-5.3 146.29-5.3L146.29-5.3 149.24-5.3 149.24 0 145.39 0Q143.04 0 141.52-1 139.99-2 139.19-3.75L139.19-3.75 134.19-14.65Q133.64-14.6 133.14-14.58 132.64-14.55 132.04-14.55L132.04-14.55 125.64-14.55 125.64 0ZM155.54 0L149.29 0 160.94-31.4Q161.79-33.55 163.39-34.58 164.99-35.6 167.04-35.6L167.04-35.6Q169.14-35.6 170.76-34.6 172.39-33.6 173.19-31.45L173.19-31.45 184.89 0 178.34 0 175.64-7.75 158.34-7.75 155.54 0ZM166.04-29.4L160.14-13.05 173.84-13.05 168.24-29.4Q168.04-29.9 167.76-30.15 167.49-30.4 167.09-30.4L167.09-30.4Q166.69-30.4 166.44-30.13 166.19-29.85 166.04-29.4L166.04-29.4ZM193.79 0L187.84 0 187.84-35 203.34-35Q206.69-35 209.46-33.52 212.24-32.05 213.89-29.4 215.54-26.75 215.54-23.25L215.54-23.25Q215.54-19.75 213.81-17.07 212.09-14.4 209.24-12.95L209.24-12.95 212.69-6.4Q212.99-5.85 213.39-5.58 213.79-5.3 214.44-5.3L214.44-5.3 217.39-5.3 217.39 0 213.54 0Q211.49 0 209.89-1.03 208.29-2.05 207.34-3.75L207.34-3.75 203.24-11.6Q202.74-11.55 202.21-11.55 201.69-11.55 201.19-11.55L201.19-11.55 193.79-11.55 193.79 0ZM193.79-29.75L193.79-16.8 202.59-16.8Q204.49-16.8 206.09-17.55 207.69-18.3 208.61-19.78 209.54-21.25 209.54-23.25L209.54-23.25Q209.54-25.3 208.59-26.75 207.64-28.2 206.09-28.98 204.54-29.75 202.64-29.75L202.64-29.75 193.79-29.75ZM241.58 0L239.13 0Q236.18 0 233.98-1.33 231.78-2.65 230.56-4.9 229.33-7.15 229.33-9.9L229.33-9.9 229.33-29.75 219.13-29.75 219.13-35 245.48-35 245.48-29.75 235.28-29.75 235.28-9.15Q235.28-7.55 236.38-6.4 237.48-5.25 239.18-5.25L239.18-5.25 241.58-5.25 241.58 0Z" opacity="1" transform="matrix(1,0,0,1,0,0)" fill="#fbfbf8" class="undefined-text-0" data-fill-palette-color="primary" id="text-0"></path></svg></g></svg></g></svg></g></svg></g><g><svg viewBox="0 0 366.1617199706201 294.49185467889896" height="294.49185467889896" width="366.1617199706201"><g><svg xmlns="http://www.w3.org/2000/svg" xmlns:xlink="http://www.w3.org/1999/xlink" version="1.1" x="0" y="0" viewBox="0 9.78600025177002 100.0003433227539 80.42699432373047" enable-background="new 0 0 100 100" xml:space="preserve" width="366.1617199706201" height="294.49185467889896" class="icon-icon-0" data-fill-palette-color="accent" id="icon-0"><path d="M49.942 52.994c13.552-0.488 27.103-0.977 40.653-1.465-2.527-4.177-3.159-7.831-7.989-8.461-7.229-0.94-14.458-1.883-21.688-2.826-14.023-1.827-28.05-3.654-42.075-5.48C20.101 36.792 39.724 53.361 49.942 52.994z" fill="#ffffff" data-fill-palette-color="accent"></path><path d="M0 9.786c4.391 7.257 26.615 23.072 32.953 23.886 17.33 2.231 34.657 4.46 51.986 6.688-3.393-5.607-4.18-9.35-10.312-10.959-8.904-2.341-17.812-4.683-26.717-7.023C31.94 18.182 15.97 13.984 0 9.786z" fill="#ffffff" data-fill-palette-color="accent"></path><path d="M63.108 66.207c10.413-2.219 20.826-4.439 31.241-6.66-2.028-3.346-2.034-5.359-5.827-5.189-6.158 0.273-12.314 0.549-18.471 0.822-11.343 0.506-22.686 1.014-34.028 1.518C37.298 58.064 54.94 67.947 63.108 66.207z" fill="#ffffff" data-fill-palette-color="accent"></path><path d="M87.682 90.213c5.725-3.719 7.262-7.721 10.519-13.807 3.651-6.824 1.257-7.844-2.821-14.596-0.417-0.688-5.842 0.232-6.453 0.904-0.745 0.818-0.248 5.455-0.294 6.496C88.315 76.211 87.998 83.213 87.682 90.213z" fill="#ffffff" data-fill-palette-color="accent"></path><path d="M86.35 63.447c-3.795 0.809-8.604 0.191-9.572 4.229-1.373 5.736-2.746 11.475-4.12 17.211C81.904 82.678 86.028 71.582 86.35 63.447z" fill="#ffffff" data-fill-palette-color="accent"></path><path d="M74.666 66.121c-9.148 1.953-8.956 4.611-12.879 13.18C68.007 78.711 73.811 71.941 74.666 66.121z" fill="#ffffff" data-fill-palette-color="accent"></path></svg></g></svg></g></svg></g><defs></defs></svg><rect width="395.52" height="149.44777547455786" fill="none" stroke="none" visibility="hidden"></rect></g></svg></g></svg>